<?xml version="1.0" standalone="no"?>
<!DOCTYPE svg PUBLIC "-//W3C//DTD SVG 20010904//EN"
 "http://www.w3.org/TR/2001/REC-SVG-20010904/DTD/svg10.dtd">
<svg version="1.0" xmlns="http://www.w3.org/2000/svg"
 width="121.000000pt" height="149.000000pt" viewBox="0 0 121.000000 149.000000"
 preserveAspectRatio="xMidYMid meet">
<metadata>
Created by potrace 1.16, written by Peter Selinger 2001-2019
</metadata>
<g transform="translate(0.000000,149.000000) scale(0.100000,-0.100000)"
fill="#000000" stroke="none">
<path d="M542 1195 c-147 -161 -296 -382 -332 -494 -49 -153 -10 -311 105
-426 127 -127 312 -157 475 -78 73 36 164 127 198 200 24 52 27 69 27 163 -1
122 -15 168 -94 297 -96 158 -282 403 -306 403 -7 0 -40 -29 -73 -65z m354
-617 c-12 -96 -36 -149 -90 -204 -59 -59 -140 -94 -214 -94 -133 0 -266 140
-280 292 l-5 58 298 0 298 0 -7 -52z"/>
</g>
</svg>
